<svg width="104" height="21" viewBox="0 0 104 21" fill="none" xmlns="http://www.w3.org/2000/svg">
<g clip-path="url(#clip0_2956_18732)">
<path d="M101.949 6.03803C101.375 6.03803 100.881 5.83174 100.468 5.41917C100.056 5.00659 99.8495 4.51297 99.8495 3.9383C99.8495 3.36364 100.056 2.87002 100.468 2.45744C100.881 2.04486 101.375 1.83857 101.949 1.83857C102.553 1.83857 103.054 2.04486 103.452 2.45744C103.85 2.87002 104.049 3.36364 104.049 3.9383C104.049 4.51297 103.85 5.00659 103.452 5.41917C103.054 5.83174 102.553 6.03803 101.949 6.03803ZM100.247 17.9733V7.01054H103.651V17.9733H100.247Z" fill="#222222"/>
<path d="M91.3857 18.2386C90.7521 18.2386 90.1627 18.1133 89.6175 17.8628C89.0723 17.5976 88.6303 17.2219 88.2914 16.7356C87.9672 16.2346 87.8051 15.6305 87.8051 14.9232C87.8051 14.1128 88.0188 13.4571 88.4461 12.9561C88.8734 12.4404 89.4407 12.0646 90.148 11.8289C90.87 11.5931 91.6583 11.4752 92.5129 11.4752H94.9884C94.9884 11.0921 94.9221 10.7532 94.7895 10.4585C94.6569 10.1638 94.4579 9.93543 94.1927 9.77335C93.9275 9.59653 93.596 9.50812 93.1981 9.50812C92.7855 9.50812 92.4098 9.59653 92.0709 9.77335C91.732 9.95017 91.5183 10.2522 91.4299 10.6795H88.1367C88.1956 9.86913 88.4682 9.17658 88.9544 8.60192C89.4407 8.01252 90.0596 7.55574 90.811 7.23157C91.5773 6.9074 92.3951 6.74532 93.2644 6.74532C94.2811 6.74532 95.1726 6.93687 95.9388 7.31998C96.7198 7.68835 97.3239 8.22618 97.7512 8.93346C98.1785 9.626 98.3922 10.4659 98.3922 11.4531V14.2601C98.3922 14.5843 98.4364 14.8348 98.5248 15.0116C98.6279 15.1884 98.8858 15.2769 99.2984 15.2769V17.9733C98.5911 17.9733 98.0017 17.9291 97.5302 17.8407C97.0587 17.7523 96.6608 17.5902 96.3366 17.3545C96.0125 17.104 95.7178 16.743 95.4526 16.2715C94.9663 16.9198 94.3916 17.4134 93.7286 17.7523C93.0655 18.0765 92.2845 18.2386 91.3857 18.2386ZM92.5792 15.6305C93.0066 15.6305 93.397 15.5421 93.7507 15.3653C94.119 15.1737 94.4137 14.9085 94.6348 14.5696C94.8558 14.2307 94.9663 13.8476 94.9663 13.4202V13.2876H92.8666C92.5719 13.2876 92.2993 13.3318 92.0488 13.4202C91.7983 13.4939 91.5994 13.6192 91.452 13.796C91.3047 13.9581 91.231 14.1865 91.231 14.4812C91.231 14.9085 91.371 15.2105 91.6509 15.3874C91.9309 15.5494 92.2403 15.6305 92.5792 15.6305Z" fill="#222222"/>
<path d="M85.0856 17.9733C83.7889 17.9733 82.809 17.6565 82.146 17.0229C81.4976 16.3893 81.1735 15.4168 81.1735 14.1054V9.81754H80.0241V7.01053H81.1735V4.29193H84.5772V7.01053H86.8096V9.81754H84.5772V14.1496C84.5772 14.518 84.6509 14.7685 84.7983 14.9011C84.9603 15.019 85.2256 15.0779 85.5939 15.0779H86.8096V17.9733H85.0856Z" fill="#222222"/>
<path d="M73.8578 18.2386C72.8411 18.2386 71.9054 18.0249 71.0508 17.5976C70.1961 17.1556 69.511 16.5072 68.9952 15.6526C68.4795 14.798 68.2216 13.7444 68.2216 12.4919C68.2216 11.2395 68.4721 10.1859 68.9731 9.3313C69.4741 8.47667 70.1519 7.8357 71.0066 7.40839C71.8612 6.96634 72.8116 6.74532 73.8578 6.74532C74.9482 6.74532 75.9059 6.97371 76.7311 7.43049C77.571 7.87254 78.2267 8.51351 78.6982 9.3534C79.1844 10.1786 79.4276 11.1658 79.4276 12.3151C79.4276 12.4625 79.4202 12.6246 79.4055 12.8014C79.4055 12.9635 79.3907 13.1329 79.3613 13.3097H71.6254C71.6696 13.8402 71.7949 14.2601 72.0012 14.5696C72.2222 14.879 72.4874 15.1074 72.7968 15.2547C73.121 15.3874 73.4378 15.4537 73.7473 15.4537C74.1746 15.4537 74.5356 15.3653 74.8303 15.1884C75.125 15.0116 75.3534 14.739 75.5154 14.3707H79.1623C79.0003 15.0632 78.6761 15.7042 78.1898 16.2936C77.7036 16.883 77.0921 17.3545 76.3553 17.7081C75.6333 18.0618 74.8008 18.2386 73.8578 18.2386ZM71.6254 11.4089H75.9133C75.9133 10.8048 75.7144 10.3333 75.3165 9.99437C74.9187 9.65547 74.4177 9.48602 73.8136 9.48602C73.2242 9.48602 72.7379 9.66284 72.3548 10.0165C71.9717 10.3554 71.7286 10.8195 71.6254 11.4089Z" fill="#222222"/>
<path d="M56.3336 17.9733V7.01055H59.7374V8.33669C60.1352 7.77676 60.6067 7.37155 61.1519 7.12106C61.6971 6.87056 62.3086 6.74532 62.9864 6.74532C64.3568 6.74532 65.3956 7.18737 66.1029 8.07146C66.8101 8.94082 67.1638 10.0754 67.1638 11.4752V17.9733H63.7821V11.8952C63.7821 11.2026 63.6127 10.6501 63.2737 10.2375C62.9348 9.81019 62.4265 9.59653 61.7487 9.59653C61.0856 9.59653 60.5846 9.81755 60.2457 10.2596C59.9068 10.6869 59.7374 11.2321 59.7374 11.8952V17.9733H56.3336Z" fill="#222222"/>
<path d="M49.2948 18.2386C48.2339 18.2386 47.2614 18.0176 46.3773 17.5755C45.5079 17.1187 44.808 16.463 44.2776 15.6084C43.7618 14.7538 43.504 13.7149 43.504 12.4919C43.504 11.3279 43.7545 10.3185 44.2554 9.46391C44.7712 8.60929 45.4711 7.94622 46.3552 7.4747C47.2393 6.98844 48.2339 6.74532 49.339 6.74532C50.5178 6.74532 51.5419 6.99581 52.4112 7.4968C53.2806 7.98305 53.9584 8.66086 54.4447 9.53022C54.9309 10.3848 55.174 11.3721 55.174 12.4919C55.174 13.656 54.9162 14.6727 54.4005 15.5421C53.8847 16.3967 53.1848 17.0598 52.3007 17.5313C51.4166 18.0028 50.4147 18.2386 49.2948 18.2386ZM49.3169 15.2769C49.8032 15.2769 50.2231 15.159 50.5767 14.9232C50.9304 14.6875 51.203 14.3559 51.3945 13.9286C51.6008 13.5013 51.704 13.015 51.704 12.4698C51.704 11.8657 51.5935 11.3647 51.3724 10.9669C51.1661 10.5543 50.8788 10.2449 50.5104 10.0386C50.1568 9.83229 49.759 9.72914 49.3169 9.72914C48.8601 9.72914 48.4475 9.83966 48.0792 10.0607C47.7255 10.2817 47.4456 10.5985 47.2393 11.0111C47.033 11.4237 46.9298 11.9173 46.9298 12.4919C46.9298 13.0371 47.0256 13.5234 47.2172 13.9507C47.4235 14.3633 47.7034 14.6875 48.0571 14.9232C48.4107 15.159 48.8307 15.2769 49.3169 15.2769Z" fill="#222222"/>
<path d="M26.4 17.9733V2.50164H30.5552L34.3348 11.9836L38.0038 2.50164H42.159V17.9733H38.6668V8.66821L35.683 16.1609H32.876L29.8922 8.64611V17.9733H26.4Z" fill="#222222"/>
<rect y="0.0385742" width="20" height="20" rx="4.2" fill="#222222"/>
<path d="M12.8407 10.0382C12.8407 11.6299 11.5503 12.9203 9.95851 12.9203C8.36672 12.9203 7.07632 11.6299 7.07632 10.0382C7.07632 8.44638 8.36672 7.15598 9.95851 7.15598C11.5503 7.15598 12.8407 8.44638 12.8407 10.0382Z" fill="white"/>
<path d="M13.2524 10.0382C13.2524 11.8573 11.7777 13.3321 9.9585 13.3321C8.13932 13.3321 6.66458 11.8573 6.66458 10.0382C6.66458 8.21898 8.13932 6.74424 9.9585 6.74424C11.7777 6.74424 13.2524 8.21898 13.2524 10.0382Z" fill="white"/>
<path d="M10.782 10.0382C10.782 10.493 10.4133 10.8616 9.95849 10.8616C9.50369 10.8616 9.13501 10.493 9.13501 10.0382C9.13501 9.58336 9.50369 9.21467 9.95849 9.21467C10.4133 9.21467 10.782 9.58336 10.782 10.0382Z" fill="#222222"/>
<path fill-rule="evenodd" clip-rule="evenodd" d="M9.95849 2.21509C10.4133 2.21509 10.782 2.58378 10.782 3.03857V4.68553C10.782 5.14033 10.4133 5.50901 9.95849 5.50901C9.50369 5.50901 9.13501 5.14033 9.13501 4.68553V3.03857C9.13501 2.58378 9.50369 2.21509 9.95849 2.21509Z" fill="white"/>
<path fill-rule="evenodd" clip-rule="evenodd" d="M16.1743 5.39143C16.4666 5.73982 16.4211 6.25924 16.0728 6.55157L14.8111 7.61022C14.4627 7.90256 13.9433 7.85711 13.651 7.50872C13.3586 7.16033 13.4041 6.64091 13.7525 6.34858L15.0141 5.28993C15.3625 4.99759 15.8819 5.04304 16.1743 5.39143Z" fill="white"/>
<path fill-rule="evenodd" clip-rule="evenodd" d="M3.76917 5.39143C3.47683 5.73982 3.52228 6.25924 3.87067 6.55157L5.13231 7.61022C5.48071 7.90256 6.00012 7.85711 6.29246 7.50872C6.5848 7.16033 6.53935 6.64091 6.19096 6.34858L4.92931 5.28993C4.58092 4.99759 4.06151 5.04304 3.76917 5.39143Z" fill="white"/>
<path fill-rule="evenodd" clip-rule="evenodd" d="M9.95849 17.8905C10.4133 17.8905 10.782 17.5218 10.782 17.067V15.4201C10.782 14.9653 10.4133 14.5966 9.95849 14.5966C9.50369 14.5966 9.13501 14.9653 9.13501 15.4201V17.067C9.13501 17.5218 9.50369 17.8905 9.95849 17.8905Z" fill="white"/>
<path fill-rule="evenodd" clip-rule="evenodd" d="M16.1743 14.7142C16.4666 14.3658 16.4211 13.8464 16.0728 13.554L14.8111 12.4954C14.4627 12.203 13.9433 12.2485 13.651 12.5969C13.3586 12.9453 13.4041 13.4647 13.7525 13.757L15.0141 14.8157C15.3625 15.108 15.8819 15.0626 16.1743 14.7142Z" fill="white"/>
<path fill-rule="evenodd" clip-rule="evenodd" d="M3.76917 14.7142C3.47683 14.3658 3.52228 13.8464 3.87067 13.554L5.13231 12.4954C5.48071 12.203 6.00012 12.2485 6.29246 12.5969C6.5848 12.9453 6.53935 13.4647 6.19096 13.757L4.92931 14.8157C4.58092 15.108 4.06151 15.0626 3.76917 14.7142Z" fill="white"/>
</g>
<defs>
<clipPath id="clip0_2956_18732">
<rect width="104" height="20" fill="white" transform="translate(0 0.0385742)"/>
</clipPath>
</defs>
</svg>
